# xmcd
#
# Track frame offsets:
#  150
#  17086
#  28047
#  38519
#  49216
#  59068
#  75408
#  85332
#  100482
#  111239
#  121832
#  133709
#  148682
#  160545
#  171048
#  183214
#  195509
#  205285
#  216749
#  226369
#
# Disc length: 3158 seconds
#
# Revision: 0
# Processed by: cddbd v1.5.1PL2 Copyright (c) Steve Scherf et al.
# Submitted via: Collectorz.com_Music_Collector 6.10
#
DISCID=170c5414
DTITLE=VARIOU - QUEENS OF COUNTRY DISC 2
DYEAR=2003
DGENRE=Country
TTITLE0=Lynn Anderson - BLUE BAYOU
TTITLE1=Dolly Parton - IT WASNT GOD WHO MADE HONKY TONK ANGELS
TTITLE2=Patsy Cline - THREE CIGARETTESIN AN ASHTRAY
TTITLE3=JANIE FRICKE - DOWN TO MY LAST BROKEN HEART
TTITLE4=Sandy Posey - WHAT A WOMAN WONT DO
TTITLE5=JANIE FRICKE - IT AINT EASY BEING EASY
TTITLE6=BARBARA MANDRELL - KAW-LIGA
TTITLE7=Lacy J Dalton - EVERY BODY MAKES MISTAKES
TTITLE8=Patsy Cline - STOP LOOK AND LISTEN
TTITLE9=Lynn Anderson - SILVER THREADS AND GOLDEN NEEDLES
TTITLE10=Lacy J Dalton - HILLBILLY GIRL WITH THE BLUES
TTITLE11=Donna Fargo - THAT WAS YESTERDAY
TTITLE12=Sandy Posey - BRING HIM SAFELY HOME TO ME
TTITLE13=BARBARA MANDRELL - WAYWARD WIND
TTITLE14=Dolly Parton - MAKIN BELIEVE
TTITLE15=Lacy J Dalton - DREAM BABY
TTITLE16=Kitty Wells - LOVE MAKES THE WORLD GO ROUND
TTITLE17=Lynn Anderson - LISTEN TO A COUNTRY SONG
TTITLE18=BARBARA MANDRELL - PLEASE RELEASE ME
TTITLE19=BILLIE JO SPEARS - IM SO LONESOME I COULD CRY
EXTD=
EXTT0=
EXTT1=
EXTT2=
EXTT3=
EXTT4=
EXTT5=
EXTT6=
EXTT7=
EXTT8=
EXTT9=
EXTT10=
EXTT11=
EXTT12=
EXTT13=
EXTT14=
EXTT15=
EXTT16=
EXTT17=
EXTT18=
EXTT19=
PLAYORDER=
